<svg xmlns="http://www.w3.org/2000/svg" xmlns:xlink="http://www.w3.org/1999/xlink" contentStyleType="text/css" height="668px" preserveAspectRatio="none" style="width:2391px;height:668px;background:#FFFFFF;" version="1.1" viewBox="0 0 2391 668" width="2391px" zoomAndPan="magnify"><defs/><g><!--cluster 2b9afb89a6acc1575b159bfca38d10ad--><g id="cluster_2b9afb89a6acc1575b159bfca38d10ad"><polygon fill="none" points="1124,16,1134,6,1654,6,1654,550.37,1644,560.37,1124,560.37,1124,16" style="stroke:#181818;stroke-width:1.0;"/><line style="stroke:#181818;stroke-width:1.0;" x1="1644" x2="1654" y1="16" y2="6"/><line style="stroke:#181818;stroke-width:1.0;" x1="1124" x2="1644" y1="16" y2="16"/><line style="stroke:#181818;stroke-width:1.0;" x1="1644" x2="1644" y1="16" y2="560.37"/><text fill="#000000" font-family="sans-serif" font-size="14" font-weight="bold" lengthAdjust="spacing" textLength="54" x="1358" y="31.9951">Django</text></g><!--cluster d48bac364ad5e16c8a0b13f87d5ae9d5--><g id="cluster_d48bac364ad5e16c8a0b13f87d5ae9d5"><polygon fill="none" points="16,16,26,6,546,6,546,550.37,536,560.37,16,560.37,16,16" style="stroke:#181818;stroke-width:1.0;"/><line style="stroke:#181818;stroke-width:1.0;" x1="536" x2="546" y1="16" y2="6"/><line style="stroke:#181818;stroke-width:1.0;" x1="16" x2="536" y1="16" y2="16"/><line style="stroke:#181818;stroke-width:1.0;" x1="536" x2="536" y1="16" y2="560.37"/><text fill="#000000" font-family="sans-serif" font-size="14" font-weight="bold" lengthAdjust="spacing" textLength="51" x="251.5" y="31.9951">Celery</text></g><!--cluster b2fe1f2bdc6c76a242b5b328bccc692b--><g id="cluster_b2fe1f2bdc6c76a242b5b328bccc692b"><polygon fill="none" points="570,16,580,6,1100,6,1100,550.37,1090,560.37,570,560.37,570,16" style="stroke:#181818;stroke-width:1.0;"/><line style="stroke:#181818;stroke-width:1.0;" x1="1090" x2="1100" y1="16" y2="6"/><line style="stroke:#181818;stroke-width:1.0;" x1="570" x2="1090" y1="16" y2="16"/><line style="stroke:#181818;stroke-width:1.0;" x1="1090" x2="1090" y1="16" y2="560.37"/><text fill="#000000" font-family="sans-serif" font-size="14" font-weight="bold" lengthAdjust="spacing" textLength="92" x="785" y="31.9951">Celery-beat</text></g><!--cluster d463aa9c44e3ffb4027aaed7edd5a92c--><g id="cluster_d463aa9c44e3ffb4027aaed7edd5a92c"><polygon fill="none" points="1740,16,1750,6,2146,6,2146,550.37,2136,560.37,1740,560.37,1740,16" style="stroke:#181818;stroke-width:1.0;"/><line style="stroke:#181818;stroke-width:1.0;" x1="2136" x2="2146" y1="16" y2="6"/><line style="stroke:#181818;stroke-width:1.0;" x1="1740" x2="2136" y1="16" y2="16"/><line style="stroke:#181818;stroke-width:1.0;" x1="2136" x2="2136" y1="16" y2="560.37"/><text fill="#000000" font-family="sans-serif" font-size="14" font-weight="bold" lengthAdjust="spacing" textLength="40" x="1919" y="31.9951">Pgdb</text></g><!--cluster 86a1b907d54bf7010394bf316e183e67--><g id="cluster_86a1b907d54bf7010394bf316e183e67"><polygon fill="none" points="2170,40.44,2180,30.44,2374,30.44,2374,171.63,2364,181.63,2170,181.63,2170,40.44" style="stroke:#181818;stroke-width:1.0;"/><line style="stroke:#181818;stroke-width:1.0;" x1="2364" x2="2374" y1="40.44" y2="30.44"/><line style="stroke:#181818;stroke-width:1.0;" x1="2170" x2="2364" y1="40.44" y2="40.44"/><line style="stroke:#181818;stroke-width:1.0;" x1="2364" x2="2364" y1="40.44" y2="181.63"/><text fill="#000000" font-family="sans-serif" font-size="14" font-weight="bold" lengthAdjust="spacing" textLength="43" x="2246.5" y="56.4351">Redis</text></g><!--entity 7daba1d4c5af8b430797c813253fd1ba--><g id="elem_7daba1d4c5af8b430797c813253fd1ba"><rect fill="#F1F1F1" height="144.0781" rx="2.5" ry="2.5" style="stroke:#181818;stroke-width:0.5;" width="497" x="1140.5" y="46"/><rect fill="#F1F1F1" height="10" style="stroke:#181818;stroke-width:0.5;" width="15" x="1617.5" y="51"/><rect fill="#F1F1F1" height="2" style="stroke:#181818;stroke-width:0.5;" width="4" x="1615.5" y="53"/><rect fill="#F1F1F1" height="2" style="stroke:#181818;stroke-width:0.5;" width="4" x="1615.5" y="57"/><text fill="#000000" font-family="sans-serif" font-size="14" font-weight="bold" lengthAdjust="spacing" textLength="53" x="1155.5" y="78.9951">django</text><text fill="#000000" font-family="sans-serif" font-size="14" lengthAdjust="spacing" textLength="4" x="1155.5" y="95.292">&#160;</text><text fill="#000000" font-family="sans-serif" font-size="14" lengthAdjust="spacing" textLength="195" x="1155.5" y="111.5889">environment: DEBUG=False</text><text fill="#000000" font-family="sans-serif" font-size="14" lengthAdjust="spacing" textLength="457" x="1155.5" y="127.8857">environment: DJANGO_ALLOWED_HOSTS=localhost 127.0.0.1 [::1]</text><text fill="#000000" font-family="sans-serif" font-size="14" lengthAdjust="spacing" textLength="366" x="1155.5" y="144.1826">environment: CELERY_BROKER=redis://redis:6379/0</text><text fill="#000000" font-family="sans-serif" font-size="14" lengthAdjust="spacing" textLength="375" x="1155.5" y="160.4795">environment: CELERY_BACKEND=redis://redis:6379/0</text><text fill="#000000" font-family="sans-serif" font-size="14" lengthAdjust="spacing" textLength="4" x="1155.5" y="176.7764">&#160;</text></g><!--entity 7c494a3e4fabc976b0a9e2ffaa3063ae--><g id="elem_7c494a3e4fabc976b0a9e2ffaa3063ae"><ellipse cx="1531" cy="280.08" fill="#F1F1F1" rx="8" ry="8" style="stroke:#181818;stroke-width:0.5;"/><text fill="#000000" font-family="sans-serif" font-size="14" lengthAdjust="spacing" textLength="36" x="1513" y="310.0751">8000</text></g><!--entity b3805e9f4a0415dcade79ec961391f71--><g id="elem_b3805e9f4a0415dcade79ec961391f71"><rect fill="#F1F1F1" height="39.2969" rx="2.5" ry="2.5" style="stroke:#181818;stroke-width:0.5;" width="70" x="1247" y="505.08"/><polygon fill="#F1F1F1" points="1300,510.08,1300,524.08,1312,524.08,1312,516.08,1306,510.08,1300,510.08" style="stroke:#181818;stroke-width:0.5;"/><line style="stroke:#181818;stroke-width:0.5;" x1="1306" x2="1306" y1="510.08" y2="516.08"/><line style="stroke:#181818;stroke-width:0.5;" x1="1312" x2="1306" y1="516.08" y2="516.08"/><text fill="#000000" font-family="sans-serif" font-size="14" lengthAdjust="spacing" textLength="40" x="1257" y="531.0751">/code</text></g><!--entity 08b7fccb45858be7a476d4e427762e0d--><g id="elem_08b7fccb45858be7a476d4e427762e0d"><rect fill="#F1F1F1" height="144.0781" rx="2.5" ry="2.5" style="stroke:#181818;stroke-width:0.5;" width="497" x="32.5" y="46"/><rect fill="#F1F1F1" height="10" style="stroke:#181818;stroke-width:0.5;" width="15" x="509.5" y="51"/><rect fill="#F1F1F1" height="2" style="stroke:#181818;stroke-width:0.5;" width="4" x="507.5" y="53"/><rect fill="#F1F1F1" height="2" style="stroke:#181818;stroke-width:0.5;" width="4" x="507.5" y="57"/><text fill="#000000" font-family="sans-serif" font-size="14" font-weight="bold" lengthAdjust="spacing" textLength="49" x="47.5" y="78.9951">celery</text><text fill="#000000" font-family="sans-serif" font-size="14" lengthAdjust="spacing" textLength="4" x="47.5" y="95.292">&#160;</text><text fill="#000000" font-family="sans-serif" font-size="14" lengthAdjust="spacing" textLength="195" x="47.5" y="111.5889">environment: DEBUG=False</text><text fill="#000000" font-family="sans-serif" font-size="14" lengthAdjust="spacing" textLength="457" x="47.5" y="127.8857">environment: DJANGO_ALLOWED_HOSTS=localhost 127.0.0.1 [::1]</text><text fill="#000000" font-family="sans-serif" font-size="14" lengthAdjust="spacing" textLength="366" x="47.5" y="144.1826">environment: CELERY_BROKER=redis://redis:6379/0</text><text fill="#000000" font-family="sans-serif" font-size="14" lengthAdjust="spacing" textLength="375" x="47.5" y="160.4795">environment: CELERY_BACKEND=redis://redis:6379/0</text><text fill="#000000" font-family="sans-serif" font-size="14" lengthAdjust="spacing" textLength="4" x="47.5" y="176.7764">&#160;</text></g><!--entity 064a5b1be1ba9608dcd6c8deab159e09--><g id="elem_064a5b1be1ba9608dcd6c8deab159e09"><rect fill="#F1F1F1" height="39.2969" rx="2.5" ry="2.5" style="stroke:#181818;stroke-width:0.5;" width="70" x="353" y="505.08"/><polygon fill="#F1F1F1" points="406,510.08,406,524.08,418,524.08,418,516.08,412,510.08,406,510.08" style="stroke:#181818;stroke-width:0.5;"/><line style="stroke:#181818;stroke-width:0.5;" x1="412" x2="412" y1="510.08" y2="516.08"/><line style="stroke:#181818;stroke-width:0.5;" x1="418" x2="412" y1="516.08" y2="516.08"/><text fill="#000000" font-family="sans-serif" font-size="14" lengthAdjust="spacing" textLength="40" x="363" y="531.0751">/code</text></g><!--entity d55f5f12fe09c0f794b1e3dcade1ec85--><g id="elem_d55f5f12fe09c0f794b1e3dcade1ec85"><rect fill="#F1F1F1" height="144.0781" rx="2.5" ry="2.5" style="stroke:#181818;stroke-width:0.5;" width="497" x="586.5" y="46"/><rect fill="#F1F1F1" height="10" style="stroke:#181818;stroke-width:0.5;" width="15" x="1063.5" y="51"/><rect fill="#F1F1F1" height="2" style="stroke:#181818;stroke-width:0.5;" width="4" x="1061.5" y="53"/><rect fill="#F1F1F1" height="2" style="stroke:#181818;stroke-width:0.5;" width="4" x="1061.5" y="57"/><text fill="#000000" font-family="sans-serif" font-size="14" font-weight="bold" lengthAdjust="spacing" textLength="84" x="601.5" y="78.9951">celeryBeat</text><text fill="#000000" font-family="sans-serif" font-size="14" lengthAdjust="spacing" textLength="4" x="601.5" y="95.292">&#160;</text><text fill="#000000" font-family="sans-serif" font-size="14" lengthAdjust="spacing" textLength="195" x="601.5" y="111.5889">environment: DEBUG=False</text><text fill="#000000" font-family="sans-serif" font-size="14" lengthAdjust="spacing" textLength="457" x="601.5" y="127.8857">environment: DJANGO_ALLOWED_HOSTS=localhost 127.0.0.1 [::1]</text><text fill="#000000" font-family="sans-serif" font-size="14" lengthAdjust="spacing" textLength="366" x="601.5" y="144.1826">environment: CELERY_BROKER=redis://redis:6379/0</text><text fill="#000000" font-family="sans-serif" font-size="14" lengthAdjust="spacing" textLength="375" x="601.5" y="160.4795">environment: CELERY_BACKEND=redis://redis:6379/0</text><text fill="#000000" font-family="sans-serif" font-size="14" lengthAdjust="spacing" textLength="4" x="601.5" y="176.7764">&#160;</text></g><!--entity d1fb08c4abd03a7c62d1e6d960712a95--><g id="elem_d1fb08c4abd03a7c62d1e6d960712a95"><rect fill="#F1F1F1" height="39.2969" rx="2.5" ry="2.5" style="stroke:#181818;stroke-width:0.5;" width="70" x="800" y="505.08"/><polygon fill="#F1F1F1" points="853,510.08,853,524.08,865,524.08,865,516.08,859,510.08,853,510.08" style="stroke:#181818;stroke-width:0.5;"/><line style="stroke:#181818;stroke-width:0.5;" x1="859" x2="859" y1="510.08" y2="516.08"/><line style="stroke:#181818;stroke-width:0.5;" x1="865" x2="859" y1="516.08" y2="516.08"/><text fill="#000000" font-family="sans-serif" font-size="14" lengthAdjust="spacing" textLength="40" x="810" y="531.0751">/code</text></g><!--entity 475be7047d4c7bd0b407d531f188671d--><g id="elem_475be7047d4c7bd0b407d531f188671d"><rect fill="#F1F1F1" height="144.0781" rx="2.5" ry="2.5" style="stroke:#181818;stroke-width:0.5;" width="375" x="1755.5" y="46"/><rect fill="#F1F1F1" height="10" style="stroke:#181818;stroke-width:0.5;" width="15" x="2110.5" y="51"/><rect fill="#F1F1F1" height="2" style="stroke:#181818;stroke-width:0.5;" width="4" x="2108.5" y="53"/><rect fill="#F1F1F1" height="2" style="stroke:#181818;stroke-width:0.5;" width="4" x="2108.5" y="57"/><text fill="#000000" font-family="sans-serif" font-size="14" font-weight="bold" lengthAdjust="spacing" textLength="40" x="1770.5" y="78.9951">pgdb</text><text fill="#000000" font-family="sans-serif" font-size="14" lengthAdjust="spacing" textLength="4" x="1770.5" y="95.292">&#160;</text><text fill="#000000" font-family="sans-serif" font-size="14" lengthAdjust="spacing" textLength="113" x="1770.5" y="111.5889">image: postgres</text><text fill="#000000" font-family="sans-serif" font-size="14" lengthAdjust="spacing" textLength="275" x="1770.5" y="127.8857">environment: POSTGRES_DB=postgres</text><text fill="#000000" font-family="sans-serif" font-size="14" lengthAdjust="spacing" textLength="292" x="1770.5" y="144.1826">environment: POSTGRES_USER=postgres</text><text fill="#000000" font-family="sans-serif" font-size="14" lengthAdjust="spacing" textLength="335" x="1770.5" y="160.4795">environment: POSTGRES_PASSWORD=postgres</text><text fill="#000000" font-family="sans-serif" font-size="14" lengthAdjust="spacing" textLength="4" x="1770.5" y="176.7764">&#160;</text></g><!--entity 37dec7894cbf25b7009809ef8b9361be--><g id="elem_37dec7894cbf25b7009809ef8b9361be"><ellipse cx="2054" cy="280.08" fill="#F1F1F1" rx="8" ry="8" style="stroke:#181818;stroke-width:0.5;"/><text fill="#000000" font-family="sans-serif" font-size="14" lengthAdjust="spacing" textLength="36" x="2036" y="310.0751">5432</text></g><!--entity fac24e4e24e54cc29b6ee3a9f7678335--><g id="elem_fac24e4e24e54cc29b6ee3a9f7678335"><rect fill="#F1F1F1" height="39.2969" rx="2.5" ry="2.5" style="stroke:#181818;stroke-width:0.5;" width="194" x="1846" y="505.08"/><polygon fill="#F1F1F1" points="2023,510.08,2023,524.08,2035,524.08,2035,516.08,2029,510.08,2023,510.08" style="stroke:#181818;stroke-width:0.5;"/><line style="stroke:#181818;stroke-width:0.5;" x1="2029" x2="2029" y1="510.08" y2="516.08"/><line style="stroke:#181818;stroke-width:0.5;" x1="2035" x2="2029" y1="516.08" y2="516.08"/><text fill="#000000" font-family="sans-serif" font-size="14" lengthAdjust="spacing" textLength="164" x="1856" y="531.0751">/var/lib/postgresql/data/</text></g><!--entity 3c217ea98bfddc0f9ff1c849de325d93--><g id="elem_3c217ea98bfddc0f9ff1c849de325d93"><rect fill="#F1F1F1" height="95.1875" rx="2.5" ry="2.5" style="stroke:#181818;stroke-width:0.5;" width="171" x="2186.5" y="70.44"/><rect fill="#F1F1F1" height="10" style="stroke:#181818;stroke-width:0.5;" width="15" x="2337.5" y="75.44"/><rect fill="#F1F1F1" height="2" style="stroke:#181818;stroke-width:0.5;" width="4" x="2335.5" y="77.44"/><rect fill="#F1F1F1" height="2" style="stroke:#181818;stroke-width:0.5;" width="4" x="2335.5" y="81.44"/><text fill="#000000" font-family="sans-serif" font-size="14" font-weight="bold" lengthAdjust="spacing" textLength="40" x="2201.5" y="103.4351">redis</text><text fill="#000000" font-family="sans-serif" font-size="14" lengthAdjust="spacing" textLength="4" x="2201.5" y="119.732">&#160;</text><text fill="#000000" font-family="sans-serif" font-size="14" lengthAdjust="spacing" textLength="131" x="2201.5" y="136.0289">image: redis:alpine</text><text fill="#000000" font-family="sans-serif" font-size="14" lengthAdjust="spacing" textLength="4" x="2201.5" y="152.3257">&#160;</text></g><!--entity 1624c420083928ef3e240dd88f2e52f0--><g id="elem_1624c420083928ef3e240dd88f2e52f0"><ellipse cx="1697" cy="415.08" fill="#F1F1F1" rx="8" ry="8" style="stroke:#181818;stroke-width:0.5;"/><text fill="#000000" font-family="sans-serif" font-size="14" lengthAdjust="spacing" textLength="36" x="1679" y="445.0751">8000</text></g><!--entity e771ba177215eb3092edcb43cf53c8a7--><g id="elem_e771ba177215eb3092edcb43cf53c8a7"><ellipse cx="2189" cy="415.08" fill="#F1F1F1" rx="8" ry="8" style="stroke:#181818;stroke-width:0.5;"/><text fill="#000000" font-family="sans-serif" font-size="14" lengthAdjust="spacing" textLength="36" x="2171" y="445.0751">5432</text></g><!--entity 58b9e70b65a77700ba66e9c64d6b9f89--><g id="elem_58b9e70b65a77700ba66e9c64d6b9f89"><rect fill="#F1F1F1" height="39.2969" rx="2.5" ry="2.5" style="stroke:#181818;stroke-width:0.5;" width="34" x="818" y="623.37"/><polygon fill="#F1F1F1" points="835,628.37,835,642.37,847,642.37,847,634.37,841,628.37,835,628.37" style="stroke:#181818;stroke-width:0.5;"/><line style="stroke:#181818;stroke-width:0.5;" x1="841" x2="841" y1="628.37" y2="634.37"/><line style="stroke:#181818;stroke-width:0.5;" x1="847" x2="841" y1="634.37" y2="634.37"/><text fill="#000000" font-family="sans-serif" font-size="14" lengthAdjust="spacing" textLength="4" x="828" y="649.3651">.</text></g><!--entity b23554fa851fd75b5f3c70591e2b9d2e--><g id="elem_b23554fa851fd75b5f3c70591e2b9d2e"><rect fill="#F1F1F1" height="39.2969" rx="2.5" ry="2.5" style="stroke:#181818;stroke-width:0.5;" width="78" x="1904" y="623.37"/><polygon fill="#F1F1F1" points="1965,628.37,1965,642.37,1977,642.37,1977,634.37,1971,628.37,1965,628.37" style="stroke:#181818;stroke-width:0.5;"/><line style="stroke:#181818;stroke-width:0.5;" x1="1971" x2="1971" y1="628.37" y2="634.37"/><line style="stroke:#181818;stroke-width:0.5;" x1="1977" x2="1971" y1="634.37" y2="634.37"/><text fill="#000000" font-family="sans-serif" font-size="14" lengthAdjust="spacing" textLength="48" x="1914" y="649.3651">pgdata</text></g><!--link 7daba1d4c5af8b430797c813253fd1ba to 7c494a3e4fabc976b0a9e2ffaa3063ae--><g id="link_7daba1d4c5af8b430797c813253fd1ba_7c494a3e4fabc976b0a9e2ffaa3063ae"><path codeLine="64" d="M1452.11,190.16 C1480.55,222.22 1510.71,256.21 1524.01,271.19 " fill="none" id="7daba1d4c5af8b430797c813253fd1ba-7c494a3e4fabc976b0a9e2ffaa3063ae" style="stroke:#181818;stroke-width:1.0;"/></g><!--link 7c494a3e4fabc976b0a9e2ffaa3063ae to 1624c420083928ef3e240dd88f2e52f0--><g id="link_7c494a3e4fabc976b0a9e2ffaa3063ae_1624c420083928ef3e240dd88f2e52f0"><path codeLine="65" d="M1539.92,288.23 C1568.75,311.32 1659.15,383.75 1688.03,406.89 " fill="none" id="7c494a3e4fabc976b0a9e2ffaa3063ae-1624c420083928ef3e240dd88f2e52f0" style="stroke:#181818;stroke-width:1.0;"/></g><!--link b3805e9f4a0415dcade79ec961391f71 to 58b9e70b65a77700ba66e9c64d6b9f89--><g id="link_b3805e9f4a0415dcade79ec961391f71_58b9e70b65a77700ba66e9c64d6b9f89"><path codeLine="66" d="M1246.55,534.95 C1155.9,558.53 918.14,620.39 852.18,637.55 " fill="none" id="b3805e9f4a0415dcade79ec961391f71-58b9e70b65a77700ba66e9c64d6b9f89" style="stroke:#181818;stroke-width:1.0;"/><text fill="#000000" font-family="sans-serif" font-size="13" lengthAdjust="spacing" textLength="14" x="1086" y="589.4369">rw</text></g><!--link 7daba1d4c5af8b430797c813253fd1ba to b3805e9f4a0415dcade79ec961391f71--><g id="link_7daba1d4c5af8b430797c813253fd1ba_b3805e9f4a0415dcade79ec961391f71"><path codeLine="67" d="M1370.12,190.46 C1344.86,285.98 1303.0932,443.9392 1288.5032,499.1392 " fill="none" id="7daba1d4c5af8b430797c813253fd1ba-to-b3805e9f4a0415dcade79ec961391f71" style="stroke:#181818;stroke-width:1.0;stroke-dasharray:7.0,7.0;"/><polygon fill="#181818" points="1286.97,504.94,1293.137,497.261,1288.2477,500.106,1285.4026,495.2167,1286.97,504.94" style="stroke:#181818;stroke-width:1.0;"/><text fill="#000000" font-family="sans-serif" font-size="13" lengthAdjust="spacing" textLength="23" x="1331" y="352.1469">use</text></g><!--link 064a5b1be1ba9608dcd6c8deab159e09 to 58b9e70b65a77700ba66e9c64d6b9f89--><g id="link_064a5b1be1ba9608dcd6c8deab159e09_58b9e70b65a77700ba66e9c64d6b9f89"><path codeLine="68" d="M423.45,534.95 C514.1,558.53 751.86,620.39 817.82,637.55 " fill="none" id="064a5b1be1ba9608dcd6c8deab159e09-58b9e70b65a77700ba66e9c64d6b9f89" style="stroke:#181818;stroke-width:1.0;"/><text fill="#000000" font-family="sans-serif" font-size="13" lengthAdjust="spacing" textLength="14" x="639" y="589.4369">rw</text></g><!--link 08b7fccb45858be7a476d4e427762e0d to 064a5b1be1ba9608dcd6c8deab159e09--><g id="link_08b7fccb45858be7a476d4e427762e0d_064a5b1be1ba9608dcd6c8deab159e09"><path codeLine="69" d="M299.88,190.46 C325.14,285.98 366.9068,443.9392 381.4968,499.1392 " fill="none" id="08b7fccb45858be7a476d4e427762e0d-to-064a5b1be1ba9608dcd6c8deab159e09" style="stroke:#181818;stroke-width:1.0;stroke-dasharray:7.0,7.0;"/><polygon fill="#181818" points="383.03,504.94,384.5974,495.2167,381.7523,500.106,376.863,497.261,383.03,504.94" style="stroke:#181818;stroke-width:1.0;"/><text fill="#000000" font-family="sans-serif" font-size="13" lengthAdjust="spacing" textLength="23" x="344" y="352.1469">use</text></g><!--link d1fb08c4abd03a7c62d1e6d960712a95 to 58b9e70b65a77700ba66e9c64d6b9f89--><g id="link_d1fb08c4abd03a7c62d1e6d960712a95_58b9e70b65a77700ba66e9c64d6b9f89"><path codeLine="70" d="M835,544.67 C835,566.29 835,601.46 835,623.09 " fill="none" id="d1fb08c4abd03a7c62d1e6d960712a95-58b9e70b65a77700ba66e9c64d6b9f89" style="stroke:#181818;stroke-width:1.0;"/><text fill="#000000" font-family="sans-serif" font-size="13" lengthAdjust="spacing" textLength="14" x="836" y="589.4369">rw</text></g><!--link d55f5f12fe09c0f794b1e3dcade1ec85 to d1fb08c4abd03a7c62d1e6d960712a95--><g id="link_d55f5f12fe09c0f794b1e3dcade1ec85_d1fb08c4abd03a7c62d1e6d960712a95"><path codeLine="71" d="M835,190.46 C835,285.98 835,443.74 835,498.94 " fill="none" id="d55f5f12fe09c0f794b1e3dcade1ec85-to-d1fb08c4abd03a7c62d1e6d960712a95" style="stroke:#181818;stroke-width:1.0;stroke-dasharray:7.0,7.0;"/><polygon fill="#181818" points="835,504.94,839,495.94,835,499.94,831,495.94,835,504.94" style="stroke:#181818;stroke-width:1.0;"/><text fill="#000000" font-family="sans-serif" font-size="13" lengthAdjust="spacing" textLength="23" x="836" y="352.1469">use</text></g><!--link 475be7047d4c7bd0b407d531f188671d to 37dec7894cbf25b7009809ef8b9361be--><g id="link_475be7047d4c7bd0b407d531f188671d_37dec7894cbf25b7009809ef8b9361be"><path codeLine="72" d="M1992.33,190.16 C2014.57,222.22 2038.14,256.21 2048.53,271.19 " fill="none" id="475be7047d4c7bd0b407d531f188671d-37dec7894cbf25b7009809ef8b9361be" style="stroke:#181818;stroke-width:1.0;"/></g><!--link 37dec7894cbf25b7009809ef8b9361be to e771ba177215eb3092edcb43cf53c8a7--><g id="link_37dec7894cbf25b7009809ef8b9361be_e771ba177215eb3092edcb43cf53c8a7"><path codeLine="73" d="M2062.04,289 C2086.11,312.71 2157.38,382.93 2181.17,406.36 " fill="none" id="37dec7894cbf25b7009809ef8b9361be-e771ba177215eb3092edcb43cf53c8a7" style="stroke:#181818;stroke-width:1.0;"/></g><!--link fac24e4e24e54cc29b6ee3a9f7678335 to b23554fa851fd75b5f3c70591e2b9d2e--><g id="link_fac24e4e24e54cc29b6ee3a9f7678335_b23554fa851fd75b5f3c70591e2b9d2e"><path codeLine="74" d="M1943,544.67 C1943,566.29 1943,601.46 1943,623.09 " fill="none" id="fac24e4e24e54cc29b6ee3a9f7678335-b23554fa851fd75b5f3c70591e2b9d2e" style="stroke:#181818;stroke-width:1.0;"/><text fill="#000000" font-family="sans-serif" font-size="13" lengthAdjust="spacing" textLength="14" x="1944" y="589.4369">rw</text></g><!--link 475be7047d4c7bd0b407d531f188671d to fac24e4e24e54cc29b6ee3a9f7678335--><g id="link_475be7047d4c7bd0b407d531f188671d_fac24e4e24e54cc29b6ee3a9f7678335"><path codeLine="75" d="M1943,190.46 C1943,285.98 1943,443.74 1943,498.94 " fill="none" id="475be7047d4c7bd0b407d531f188671d-to-fac24e4e24e54cc29b6ee3a9f7678335" style="stroke:#181818;stroke-width:1.0;stroke-dasharray:7.0,7.0;"/><polygon fill="#181818" points="1943,504.94,1947,495.94,1943,499.94,1939,495.94,1943,504.94" style="stroke:#181818;stroke-width:1.0;"/><text fill="#000000" font-family="sans-serif" font-size="13" lengthAdjust="spacing" textLength="23" x="1944" y="352.1469">use</text></g><!--SRC=[tPLTQrj748RlpwyuwAerMDhlsHMuO5kgIsCY8pM44eAPtPbLLMJ9bPIafUI_TtKiDr8mBBbi4KWNcfcTVUQTTt6vN7zwMFovMCsRrPguxOr-nzLytMjnsweOC4SVq65AqeADqeQO4sfFKY2rVpTjMZyyhbUyshL0656IIHQpZqOB292yrChgJ39Y-wuvEwEk-jbPq_3gusApNZsKr64x6b-zkRdu4PTR_kgFdozVtqpkBszl9s_7e_kV9hDVPXVBTSBbR-ljhfKA-g9yPFjkE9JlJtElnxVZwQ_tLzF9g_7qOiEqs0u7WwTVfo4CnClnbzUlngz7BoSqxvlllczxNWZH8O9aWa7D9cDC0LmK65ZbZAY5qyWDRdQBZ6dNzWQfyEsIelR2SiW6XP6M4X93u1ISr45caCtdmookUScRlxeSCZvYqiuWMPOkUHHHwko1B78WUpeBuIFabAAntlh8W0OS6JOAm2aMrCqYTTN_qxDuYQueZ8fI8nVD1ISy9IguY76lNXRXAxhdaN7tD1QLMMOLARa43fLHqKQjV4mfkQ3YAMAoDjiiIuu8IMG89ahMtJ0b9s-F45-L4_vtc4dcA7mo64beXEGKINPKY8DK6Eo_cE_c50yIBXk18Hd3EkTeX0949c0g6WugdV8rnMuOX87YA53EAF55wrfcwRq3-IJXnr9xJtRnW7CUjey5q7p3szDBtXM2DzFnx7vqTL69U3Chs2enTvUpsTl9TFGbxc0ArcZLNLG3SG8VJ8fPsGX212y25rSCsXLX7lFyY9l1SX47pyN-M0u8TpZe2fKOLRQMovSrAQaG7RF6aC61r_eBu-b-O5sAToXZsACoCOEGGXTXPYqTIw_PmIbadPG4nk1Z9Yeg3ZdBv4qWBhPDGNUGEpKSKNvI1ouV5olUt_tpgILAfqmoIWYlW_ASTMbV47cV5LkLnIah1YXxAW6Kj1or28gf-9PEsUfYSd34gjyb53yBHHVHMGGeQ2Cwno4vGow6xCDHGb57GNdORMrjCMblPQQYB9jr0c63vFB8aUAc-dgTqtdTxMi1NPKgeDhxq5MfSMY7RM_pgLU_MBzF_VuFrKTfN-_3bdjDpL-_gRlgGtNehdheStSrM_gcxgeUV-YkUkXpTrLJstTNjOzQG5UbkbWrS-cgrFRccLJrOWTIrKCFfFu1]--></g></svg>